<mxfile host="app.diagrams.net" agent="Mozilla/5.0 (Macintosh; Intel Mac OS X 10.15; rv:137.0) Gecko/20100101 Firefox/137.0" version="26.2.12">
  <diagram id="chyhXruKCitl9BDZxDRp" name="Page-1">
    <mxGraphModel dx="2068" dy="1134" grid="1" gridSize="10" guides="1" tooltips="1" connect="1" arrows="1" fold="1" page="1" pageScale="1" pageWidth="850" pageHeight="1100" math="0" shadow="0">
      <root>
        <mxCell id="0" />
        <mxCell id="1" parent="0" />
        <mxCell id="vF229vAikid6p4hbQFqr-116" style="edgeStyle=orthogonalEdgeStyle;rounded=0;orthogonalLoop=1;jettySize=auto;html=1;entryX=0;entryY=0.5;entryDx=0;entryDy=0;fillColor=#dae8fc;strokeColor=#6c8ebf;" parent="1" source="vF229vAikid6p4hbQFqr-8" target="vF229vAikid6p4hbQFqr-76" edge="1">
          <mxGeometry relative="1" as="geometry" />
        </mxCell>
        <mxCell id="vF229vAikid6p4hbQFqr-8" value="" style="html=1;dashed=0;whitespace=wrap;fillColor=#2875E2;strokeColor=#ffffff;points=[[0.005,0.63,0],[0.1,0.2,0],[0.9,0.2,0],[0.5,0,0],[0.995,0.63,0],[0.72,0.99,0],[0.5,1,0],[0.28,0.99,0]];shape=mxgraph.kubernetes.icon;prIcon=user;verticalAlign=bottom;shadow=1;" parent="1" vertex="1">
          <mxGeometry x="20" y="526" width="50" height="48" as="geometry" />
        </mxCell>
        <mxCell id="vF229vAikid6p4hbQFqr-76" value="" style="strokeColor=#dddddd;shadow=1;strokeWidth=1;rounded=1;absoluteArcSize=1;arcSize=2;glass=0;sketch=0;fillColor=#66B2FF;gradientColor=#ffffff;verticalAlign=bottom;opacity=90;" parent="1" vertex="1">
          <mxGeometry x="100" y="520" width="130" height="60" as="geometry" />
        </mxCell>
        <mxCell id="vF229vAikid6p4hbQFqr-77" value="Cloud Load&#xa;Balancing" style="dashed=0;connectable=0;html=1;fillColor=#5184F3;strokeColor=none;shape=mxgraph.gcp2.hexIcon;prIcon=cloud_load_balancing;part=1;labelPosition=right;verticalLabelPosition=middle;align=left;verticalAlign=middle;spacingLeft=5;fontColor=#999999;fontSize=12;" parent="vF229vAikid6p4hbQFqr-76" vertex="1">
          <mxGeometry y="0.5" width="44" height="39" relative="1" as="geometry">
            <mxPoint x="5" y="-19.5" as="offset" />
          </mxGeometry>
        </mxCell>
        <mxCell id="gTLbP1D9JrKEajbqQico-225" value="REST API" style="whiteSpace=wrap;html=1;aspect=fixed;rounded=0;shadow=1;glass=0;dashed=1;dashPattern=1 1;sketch=0;gradientColor=#ffffff;verticalAlign=top;opacity=90;labelPosition=center;verticalLabelPosition=bottom;align=center;" parent="1" vertex="1">
          <mxGeometry x="556.5" y="629.5" width="79" height="79" as="geometry" />
        </mxCell>
        <mxCell id="gTLbP1D9JrKEajbqQico-227" value="" style="rounded=1;whiteSpace=wrap;html=1;fillColor=#ffe6cc;strokeColor=#d79b00;shadow=0;sketch=0;glass=0;dashed=1;dashPattern=1 1;gradientDirection=east;opacity=90;labelPosition=center;verticalLabelPosition=top;align=center;verticalAlign=bottom;arcSize=3;" parent="1" vertex="1">
          <mxGeometry x="361" y="616.5" width="529" height="409" as="geometry" />
        </mxCell>
        <mxCell id="gTLbP1D9JrKEajbqQico-228" value="" style="rounded=1;whiteSpace=wrap;html=1;fillColor=#ffe6cc;strokeColor=#d79b00;shadow=0;sketch=0;glass=0;dashed=1;dashPattern=1 1;gradientDirection=east;labelPosition=center;verticalLabelPosition=top;align=center;verticalAlign=bottom;arcSize=3;" parent="1" vertex="1">
          <mxGeometry x="351" y="606.5" width="529" height="409" as="geometry" />
        </mxCell>
        <mxCell id="gTLbP1D9JrKEajbqQico-229" value="" style="group;labelPosition=left;verticalLabelPosition=top;align=right;verticalAlign=bottom;" parent="1" vertex="1" connectable="0">
          <mxGeometry x="341" y="570" width="550" height="465" as="geometry" />
        </mxCell>
        <mxCell id="gTLbP1D9JrKEajbqQico-230" value="" style="rounded=1;whiteSpace=wrap;html=1;fillColor=#ffe6cc;strokeColor=#d79b00;shadow=0;sketch=0;glass=0;dashed=1;dashPattern=1 1;gradientDirection=east;labelPosition=center;verticalLabelPosition=top;align=center;verticalAlign=bottom;arcSize=3;" parent="gTLbP1D9JrKEajbqQico-229" vertex="1">
          <mxGeometry y="20.666666666666664" width="530" height="413.84999999999997" as="geometry" />
        </mxCell>
        <mxCell id="gTLbP1D9JrKEajbqQico-231" style="edgeStyle=orthogonalEdgeStyle;rounded=0;orthogonalLoop=1;jettySize=auto;html=1;entryX=0.005;entryY=0.63;entryDx=0;entryDy=0;entryPerimeter=0;exitX=1.02;exitY=0.458;exitDx=0;exitDy=0;exitPerimeter=0;fillColor=#dae8fc;strokeColor=#6c8ebf;" parent="gTLbP1D9JrKEajbqQico-229" source="gTLbP1D9JrKEajbqQico-234" target="gTLbP1D9JrKEajbqQico-232" edge="1">
          <mxGeometry relative="1" as="geometry">
            <mxPoint x="70" y="169.46666666666667" as="sourcePoint" />
          </mxGeometry>
        </mxCell>
        <mxCell id="gTLbP1D9JrKEajbqQico-232" value="" style="html=1;dashed=0;whitespace=wrap;fillColor=#2875E2;strokeColor=#ffffff;points=[[0.005,0.63,0],[0.1,0.2,0],[0.9,0.2,0],[0.5,0,0],[0.995,0.63,0],[0.72,0.99,0],[0.5,1,0],[0.28,0.99,0]];shape=mxgraph.kubernetes.icon;prIcon=svc;verticalAlign=top;labelPosition=center;verticalLabelPosition=bottom;align=center;shadow=1;" parent="gTLbP1D9JrKEajbqQico-229" vertex="1">
          <mxGeometry x="130" y="55.03333333333332" width="50" height="49.6" as="geometry" />
        </mxCell>
        <mxCell id="gTLbP1D9JrKEajbqQico-233" style="edgeStyle=orthogonalEdgeStyle;rounded=0;orthogonalLoop=1;jettySize=auto;html=1;entryX=0.005;entryY=0.63;entryDx=0;entryDy=0;entryPerimeter=0;fillColor=#dae8fc;strokeColor=#6c8ebf;" parent="gTLbP1D9JrKEajbqQico-229" source="gTLbP1D9JrKEajbqQico-234" target="gTLbP1D9JrKEajbqQico-236" edge="1">
          <mxGeometry relative="1" as="geometry" />
        </mxCell>
        <mxCell id="gTLbP1D9JrKEajbqQico-234" value="Traefik" style="html=1;dashed=0;whitespace=wrap;fillColor=#2875E2;strokeColor=#ffffff;points=[[0.005,0.63,0],[0.1,0.2,0],[0.9,0.2,0],[0.5,0,0],[0.995,0.63,0],[0.72,0.99,0],[0.5,1,0],[0.28,0.99,0]];shape=mxgraph.kubernetes.icon;prIcon=ing;verticalAlign=top;labelPosition=center;verticalLabelPosition=bottom;align=center;shadow=1;" parent="gTLbP1D9JrKEajbqQico-229" vertex="1">
          <mxGeometry x="20" y="127.61666666666666" width="50" height="49.6" as="geometry" />
        </mxCell>
        <mxCell id="gTLbP1D9JrKEajbqQico-235" style="edgeStyle=orthogonalEdgeStyle;rounded=0;orthogonalLoop=1;jettySize=auto;html=1;entryX=0;entryY=0.5;entryDx=0;entryDy=0;fillColor=#dae8fc;strokeColor=#6c8ebf;" parent="gTLbP1D9JrKEajbqQico-229" source="gTLbP1D9JrKEajbqQico-236" target="gTLbP1D9JrKEajbqQico-248" edge="1">
          <mxGeometry relative="1" as="geometry">
            <mxPoint x="217" y="215.96666666666664" as="targetPoint" />
          </mxGeometry>
        </mxCell>
        <mxCell id="gTLbP1D9JrKEajbqQico-236" value="" style="html=1;dashed=0;whitespace=wrap;fillColor=#2875E2;strokeColor=#ffffff;points=[[0.005,0.63,0],[0.1,0.2,0],[0.9,0.2,0],[0.5,0,0],[0.995,0.63,0],[0.72,0.99,0],[0.5,1,0],[0.28,0.99,0]];shape=mxgraph.kubernetes.icon;prIcon=svc;verticalAlign=top;labelPosition=center;verticalLabelPosition=bottom;align=center;shadow=1;" parent="gTLbP1D9JrKEajbqQico-229" vertex="1">
          <mxGeometry x="130" y="162.75333333333333" width="50" height="49.6" as="geometry" />
        </mxCell>
        <mxCell id="gTLbP1D9JrKEajbqQico-237" value="" style="html=1;dashed=0;whitespace=wrap;fillColor=#2875E2;strokeColor=#ffffff;points=[[0.005,0.63,0],[0.1,0.2,0],[0.9,0.2,0],[0.5,0,0],[0.995,0.63,0],[0.72,0.99,0],[0.5,1,0],[0.28,0.99,0]];shape=mxgraph.kubernetes.icon;prIcon=node;rounded=1;sketch=0;labelPosition=center;verticalLabelPosition=bottom;align=center;verticalAlign=top;shadow=1;" parent="gTLbP1D9JrKEajbqQico-229" vertex="1">
          <mxGeometry x="12" y="22.21666666666667" width="38" height="47.01666666666666" as="geometry" />
        </mxCell>
        <mxCell id="gTLbP1D9JrKEajbqQico-238" value="" style="shape=mxgraph.gcp2.doubleRect;strokeColor=#dddddd;shadow=1;strokeWidth=1;" parent="gTLbP1D9JrKEajbqQico-229" vertex="1">
          <mxGeometry x="379" y="143.11666666666665" width="135" height="70.26666666666667" as="geometry" />
        </mxCell>
        <mxCell id="gTLbP1D9JrKEajbqQico-239" value="PostgreSQL" style="dashed=0;connectable=0;html=1;fillColor=#5184F3;strokeColor=none;shape=mxgraph.gcp2.hexIcon;prIcon=cloud_sql;part=1;labelPosition=right;verticalLabelPosition=middle;align=left;verticalAlign=middle;spacingLeft=5;fontColor=#999999;fontSize=12;" parent="gTLbP1D9JrKEajbqQico-238" vertex="1">
          <mxGeometry y="0.5" width="44" height="39" relative="1" as="geometry">
            <mxPoint x="5" y="-19.5" as="offset" />
          </mxGeometry>
        </mxCell>
        <mxCell id="gTLbP1D9JrKEajbqQico-243" value="" style="group;container=0;connectable=1;" parent="gTLbP1D9JrKEajbqQico-229" vertex="1" connectable="0">
          <mxGeometry x="19" y="330" width="86" height="88.86666666666667" as="geometry" />
        </mxCell>
        <mxCell id="gTLbP1D9JrKEajbqQico-244" value="" style="group;labelPosition=center;verticalLabelPosition=bottom;align=center;verticalAlign=top;rounded=1;shadow=0;gradientDirection=east;strokeColor=#6c8ebf;fillColor=#dae8fc;arcSize=4;glass=1;" parent="gTLbP1D9JrKEajbqQico-243" vertex="1" connectable="0">
          <mxGeometry x="7" y="7.233333333333333" width="79" height="81.63333333333333" as="geometry" />
        </mxCell>
        <mxCell id="gTLbP1D9JrKEajbqQico-246" value="" style="html=1;dashed=0;whitespace=wrap;fillColor=#2875E2;strokeColor=#ffffff;points=[[0.005,0.63,0],[0.1,0.2,0],[0.9,0.2,0],[0.5,0,0],[0.995,0.63,0],[0.72,0.99,0],[0.5,1,0],[0.28,0.99,0]];shape=mxgraph.kubernetes.icon;prIcon=pod;rounded=1;shadow=0;glass=1;sketch=0;" parent="gTLbP1D9JrKEajbqQico-243" vertex="1">
          <mxGeometry x="28.75" y="21.441666666666663" width="35.5" height="45.98333333333333" as="geometry" />
        </mxCell>
        <mxCell id="gTLbP1D9JrKEajbqQico-247" value="&lt;font style=&quot;font-size: 11px&quot;&gt;Monitor&lt;/font&gt;" style="text;html=1;align=center;verticalAlign=middle;whiteSpace=wrap;rounded=0;shadow=0;glass=1;sketch=0;" parent="gTLbP1D9JrKEajbqQico-243" vertex="1">
          <mxGeometry x="15.129999999999999" y="58.900000000000006" width="62.75" height="20.666666666666664" as="geometry" />
        </mxCell>
        <mxCell id="14Z1kcAook-13e1Ccf9p-26" style="edgeStyle=orthogonalEdgeStyle;rounded=0;orthogonalLoop=1;jettySize=auto;html=1;exitX=1;exitY=0.25;exitDx=0;exitDy=0;entryX=0;entryY=0.25;entryDx=0;entryDy=0;fillColor=#dae8fc;strokeColor=#6c8ebf;" parent="gTLbP1D9JrKEajbqQico-229" source="gTLbP1D9JrKEajbqQico-248" target="gTLbP1D9JrKEajbqQico-238" edge="1">
          <mxGeometry relative="1" as="geometry">
            <Array as="points">
              <mxPoint x="300" y="161" />
            </Array>
          </mxGeometry>
        </mxCell>
        <mxCell id="gTLbP1D9JrKEajbqQico-248" value="" style="group;container=0;connectable=1;" parent="gTLbP1D9JrKEajbqQico-229" vertex="1" connectable="0">
          <mxGeometry x="213.5" y="143.11666666666665" width="86" height="88.86666666666667" as="geometry" />
        </mxCell>
        <mxCell id="gTLbP1D9JrKEajbqQico-249" value="" style="group;labelPosition=center;verticalLabelPosition=bottom;align=center;verticalAlign=top;rounded=1;shadow=0;gradientDirection=east;strokeColor=#6c8ebf;fillColor=#dae8fc;arcSize=4;glass=1;" parent="gTLbP1D9JrKEajbqQico-248" vertex="1" connectable="0">
          <mxGeometry x="7" y="7.233333333333333" width="79" height="81.63333333333333" as="geometry" />
        </mxCell>
        <mxCell id="gTLbP1D9JrKEajbqQico-250" value="" style="group;labelPosition=center;verticalLabelPosition=bottom;align=center;verticalAlign=top;rounded=1;shadow=0;gradientDirection=east;strokeColor=#6c8ebf;fillColor=#dae8fc;arcSize=4;glass=1;" parent="gTLbP1D9JrKEajbqQico-248" vertex="1" connectable="0">
          <mxGeometry width="79" height="81.63333333333333" as="geometry" />
        </mxCell>
        <mxCell id="gTLbP1D9JrKEajbqQico-251" value="" style="html=1;dashed=0;whitespace=wrap;fillColor=#2875E2;strokeColor=#ffffff;points=[[0.005,0.63,0],[0.1,0.2,0],[0.9,0.2,0],[0.5,0,0],[0.995,0.63,0],[0.72,0.99,0],[0.5,1,0],[0.28,0.99,0]];shape=mxgraph.kubernetes.icon;prIcon=pod;rounded=1;shadow=0;glass=1;sketch=0;" parent="gTLbP1D9JrKEajbqQico-248" vertex="1">
          <mxGeometry x="21.75" y="12.658333333333331" width="35.5" height="45.98333333333333" as="geometry" />
        </mxCell>
        <mxCell id="gTLbP1D9JrKEajbqQico-252" value="Web3 API" style="text;html=1;align=center;verticalAlign=middle;whiteSpace=wrap;rounded=0;shadow=0;glass=1;sketch=0;" parent="gTLbP1D9JrKEajbqQico-248" vertex="1">
          <mxGeometry x="10" y="55.8" width="62.75" height="20.666666666666664" as="geometry" />
        </mxCell>
        <mxCell id="14Z1kcAook-13e1Ccf9p-25" style="edgeStyle=orthogonalEdgeStyle;rounded=0;orthogonalLoop=1;jettySize=auto;html=1;entryX=0;entryY=0.75;entryDx=0;entryDy=0;exitX=1;exitY=0.25;exitDx=0;exitDy=0;fillColor=#dae8fc;strokeColor=#6c8ebf;" parent="gTLbP1D9JrKEajbqQico-229" source="gTLbP1D9JrKEajbqQico-254" target="gTLbP1D9JrKEajbqQico-238" edge="1">
          <mxGeometry relative="1" as="geometry" />
        </mxCell>
        <mxCell id="gTLbP1D9JrKEajbqQico-254" value="" style="group;container=0;connectable=1;" parent="gTLbP1D9JrKEajbqQico-229" vertex="1" connectable="0">
          <mxGeometry x="209.5" y="335.83333333333326" width="86" height="88.86666666666667" as="geometry" />
        </mxCell>
        <mxCell id="gTLbP1D9JrKEajbqQico-255" value="" style="group;labelPosition=center;verticalLabelPosition=bottom;align=center;verticalAlign=top;rounded=1;shadow=0;gradientDirection=east;strokeColor=#6c8ebf;fillColor=#dae8fc;arcSize=4;glass=1;" parent="gTLbP1D9JrKEajbqQico-254" vertex="1" connectable="0">
          <mxGeometry x="7" y="7.233333333333333" width="79" height="81.63333333333333" as="geometry" />
        </mxCell>
        <mxCell id="gTLbP1D9JrKEajbqQico-257" value="" style="html=1;dashed=0;whitespace=wrap;fillColor=#2875E2;strokeColor=#ffffff;points=[[0.005,0.63,0],[0.1,0.2,0],[0.9,0.2,0],[0.5,0,0],[0.995,0.63,0],[0.72,0.99,0],[0.5,1,0],[0.28,0.99,0]];shape=mxgraph.kubernetes.icon;prIcon=pod;rounded=1;shadow=0;glass=1;sketch=0;" parent="gTLbP1D9JrKEajbqQico-254" vertex="1">
          <mxGeometry x="28.75" y="21.441666666666663" width="35.5" height="45.98333333333333" as="geometry" />
        </mxCell>
        <mxCell id="gTLbP1D9JrKEajbqQico-258" value="&lt;font style=&quot;font-size: 11px&quot;&gt;Importer&lt;/font&gt;" style="text;html=1;align=center;verticalAlign=middle;whiteSpace=wrap;rounded=0;shadow=0;glass=1;sketch=0;" parent="gTLbP1D9JrKEajbqQico-254" vertex="1">
          <mxGeometry x="15.129999999999999" y="58.900000000000006" width="62.75" height="20.666666666666664" as="geometry" />
        </mxCell>
        <mxCell id="14Z1kcAook-13e1Ccf9p-23" style="edgeStyle=orthogonalEdgeStyle;rounded=0;orthogonalLoop=1;jettySize=auto;html=1;entryX=0;entryY=0.25;entryDx=0;entryDy=0;exitX=1.017;exitY=0.639;exitDx=0;exitDy=0;exitPerimeter=0;fillColor=#dae8fc;strokeColor=#6c8ebf;" parent="gTLbP1D9JrKEajbqQico-229" source="14Z1kcAook-13e1Ccf9p-8" target="gTLbP1D9JrKEajbqQico-261" edge="1">
          <mxGeometry relative="1" as="geometry" />
        </mxCell>
        <mxCell id="14Z1kcAook-13e1Ccf9p-24" style="edgeStyle=orthogonalEdgeStyle;rounded=0;orthogonalLoop=1;jettySize=auto;html=1;exitX=1;exitY=0.5;exitDx=0;exitDy=0;entryX=0;entryY=0.5;entryDx=0;entryDy=0;fillColor=#dae8fc;strokeColor=#6c8ebf;" parent="gTLbP1D9JrKEajbqQico-229" source="14Z1kcAook-13e1Ccf9p-8" target="gTLbP1D9JrKEajbqQico-238" edge="1">
          <mxGeometry relative="1" as="geometry">
            <Array as="points">
              <mxPoint x="329" y="285" />
              <mxPoint x="329" y="178" />
            </Array>
          </mxGeometry>
        </mxCell>
        <mxCell id="14Z1kcAook-13e1Ccf9p-8" value="" style="group;container=0;connectable=1;" parent="gTLbP1D9JrKEajbqQico-229" vertex="1" connectable="0">
          <mxGeometry x="213.5" y="240.25" width="86" height="88.86666666666667" as="geometry" />
        </mxCell>
        <mxCell id="14Z1kcAook-13e1Ccf9p-9" value="" style="group;labelPosition=center;verticalLabelPosition=bottom;align=center;verticalAlign=top;rounded=1;shadow=0;gradientDirection=east;strokeColor=#6c8ebf;fillColor=#dae8fc;arcSize=4;glass=1;" parent="14Z1kcAook-13e1Ccf9p-8" vertex="1" connectable="0">
          <mxGeometry x="7" y="7.233333333333333" width="79" height="81.63333333333333" as="geometry" />
        </mxCell>
        <mxCell id="14Z1kcAook-13e1Ccf9p-10" value="" style="group;labelPosition=center;verticalLabelPosition=bottom;align=center;verticalAlign=top;rounded=1;shadow=0;gradientDirection=east;strokeColor=#6c8ebf;fillColor=#dae8fc;arcSize=4;glass=1;" parent="14Z1kcAook-13e1Ccf9p-8" vertex="1" connectable="0">
          <mxGeometry width="79" height="81.63333333333333" as="geometry" />
        </mxCell>
        <mxCell id="14Z1kcAook-13e1Ccf9p-11" value="" style="html=1;dashed=0;whitespace=wrap;fillColor=#2875E2;strokeColor=#ffffff;points=[[0.005,0.63,0],[0.1,0.2,0],[0.9,0.2,0],[0.5,0,0],[0.995,0.63,0],[0.72,0.99,0],[0.5,1,0],[0.28,0.99,0]];shape=mxgraph.kubernetes.icon;prIcon=pod;rounded=1;shadow=0;glass=1;sketch=0;" parent="14Z1kcAook-13e1Ccf9p-8" vertex="1">
          <mxGeometry x="21.75" y="12.658333333333331" width="35.5" height="45.98333333333333" as="geometry" />
        </mxCell>
        <mxCell id="14Z1kcAook-13e1Ccf9p-12" value="gRPC API" style="text;html=1;align=center;verticalAlign=middle;whiteSpace=wrap;rounded=0;shadow=0;glass=1;sketch=0;" parent="14Z1kcAook-13e1Ccf9p-8" vertex="1">
          <mxGeometry x="10" y="55.8" width="62.75" height="20.666666666666664" as="geometry" />
        </mxCell>
        <mxCell id="gTLbP1D9JrKEajbqQico-261" value="" style="shape=mxgraph.gcp2.doubleRect;strokeColor=#dddddd;shadow=1;strokeWidth=1;" parent="gTLbP1D9JrKEajbqQico-229" vertex="1">
          <mxGeometry x="379" y="280.00333333333333" width="141" height="70.26666666666667" as="geometry" />
        </mxCell>
        <mxCell id="gTLbP1D9JrKEajbqQico-262" value="Redis" style="dashed=0;connectable=0;html=1;fillColor=#5184F3;strokeColor=none;shape=mxgraph.gcp2.hexIcon;prIcon=cloud_memorystore;part=1;labelPosition=right;verticalLabelPosition=middle;align=left;verticalAlign=middle;spacingLeft=5;fontColor=#999999;fontSize=12;" parent="gTLbP1D9JrKEajbqQico-261" vertex="1">
          <mxGeometry y="0.5" width="44" height="39" relative="1" as="geometry">
            <mxPoint x="5" y="-19.5" as="offset" />
          </mxGeometry>
        </mxCell>
        <mxCell id="14Z1kcAook-13e1Ccf9p-22" style="edgeStyle=orthogonalEdgeStyle;rounded=0;orthogonalLoop=1;jettySize=auto;html=1;entryX=0;entryY=0.669;entryDx=0;entryDy=0;entryPerimeter=0;fillColor=#dae8fc;strokeColor=#6c8ebf;" parent="gTLbP1D9JrKEajbqQico-229" source="gTLbP1D9JrKEajbqQico-254" target="gTLbP1D9JrKEajbqQico-261" edge="1">
          <mxGeometry relative="1" as="geometry">
            <Array as="points">
              <mxPoint x="349" y="380" />
              <mxPoint x="349" y="327" />
            </Array>
          </mxGeometry>
        </mxCell>
        <mxCell id="14Z1kcAook-13e1Ccf9p-33" style="edgeStyle=orthogonalEdgeStyle;rounded=0;orthogonalLoop=1;jettySize=auto;html=1;entryX=0;entryY=0.5;entryDx=0;entryDy=0;fillColor=#dae8fc;strokeColor=#6c8ebf;" parent="gTLbP1D9JrKEajbqQico-229" source="14Z1kcAook-13e1Ccf9p-31" target="14Z1kcAook-13e1Ccf9p-8" edge="1">
          <mxGeometry relative="1" as="geometry" />
        </mxCell>
        <mxCell id="14Z1kcAook-13e1Ccf9p-31" value="" style="html=1;dashed=0;whitespace=wrap;fillColor=#2875E2;strokeColor=#ffffff;points=[[0.005,0.63,0],[0.1,0.2,0],[0.9,0.2,0],[0.5,0,0],[0.995,0.63,0],[0.72,0.99,0],[0.5,1,0],[0.28,0.99,0]];shape=mxgraph.kubernetes.icon;prIcon=svc;verticalAlign=top;labelPosition=center;verticalLabelPosition=bottom;align=center;shadow=1;" parent="gTLbP1D9JrKEajbqQico-229" vertex="1">
          <mxGeometry x="130" y="259.88333333333344" width="50" height="49.6" as="geometry" />
        </mxCell>
        <mxCell id="14Z1kcAook-13e1Ccf9p-32" style="edgeStyle=orthogonalEdgeStyle;rounded=0;orthogonalLoop=1;jettySize=auto;html=1;entryX=0.005;entryY=0.63;entryDx=0;entryDy=0;entryPerimeter=0;fillColor=#dae8fc;strokeColor=#6c8ebf;" parent="gTLbP1D9JrKEajbqQico-229" source="gTLbP1D9JrKEajbqQico-234" target="14Z1kcAook-13e1Ccf9p-31" edge="1">
          <mxGeometry relative="1" as="geometry" />
        </mxCell>
        <mxCell id="14Z1kcAook-13e1Ccf9p-34" style="edgeStyle=orthogonalEdgeStyle;rounded=0;orthogonalLoop=1;jettySize=auto;html=1;exitX=1;exitY=0.75;exitDx=0;exitDy=0;entryX=0;entryY=0.5;entryDx=0;entryDy=0;fillColor=#dae8fc;strokeColor=#6c8ebf;" parent="1" source="gTLbP1D9JrKEajbqQico-265" target="gTLbP1D9JrKEajbqQico-261" edge="1">
          <mxGeometry relative="1" as="geometry">
            <Array as="points">
              <mxPoint x="660" y="681" />
              <mxPoint x="660" y="885" />
            </Array>
          </mxGeometry>
        </mxCell>
        <mxCell id="gTLbP1D9JrKEajbqQico-265" value="" style="group;container=0;connectable=1;" parent="1" vertex="1" connectable="0">
          <mxGeometry x="554.5" y="616.5" width="86" height="86" as="geometry" />
        </mxCell>
        <mxCell id="gTLbP1D9JrKEajbqQico-266" value="" style="group;labelPosition=center;verticalLabelPosition=bottom;align=center;verticalAlign=top;rounded=1;shadow=0;gradientDirection=east;strokeColor=#6c8ebf;fillColor=#dae8fc;arcSize=4;glass=1;" parent="gTLbP1D9JrKEajbqQico-265" vertex="1" connectable="0">
          <mxGeometry x="7" y="7" width="79" height="79" as="geometry" />
        </mxCell>
        <mxCell id="gTLbP1D9JrKEajbqQico-267" value="" style="group;labelPosition=center;verticalLabelPosition=bottom;align=center;verticalAlign=top;rounded=1;shadow=0;gradientDirection=east;strokeColor=#6c8ebf;fillColor=#dae8fc;arcSize=4;glass=1;" parent="gTLbP1D9JrKEajbqQico-265" vertex="1" connectable="0">
          <mxGeometry width="79" height="79" as="geometry" />
        </mxCell>
        <mxCell id="gTLbP1D9JrKEajbqQico-268" value="" style="html=1;dashed=0;whitespace=wrap;fillColor=#2875E2;strokeColor=#ffffff;points=[[0.005,0.63,0],[0.1,0.2,0],[0.9,0.2,0],[0.5,0,0],[0.995,0.63,0],[0.72,0.99,0],[0.5,1,0],[0.28,0.99,0]];shape=mxgraph.kubernetes.icon;prIcon=pod;rounded=1;shadow=0;glass=1;sketch=0;" parent="gTLbP1D9JrKEajbqQico-265" vertex="1">
          <mxGeometry x="21.75" y="12.25" width="35.5" height="44.5" as="geometry" />
        </mxCell>
        <mxCell id="gTLbP1D9JrKEajbqQico-269" value="&lt;font style=&quot;font-size: 11px&quot;&gt;REST API&lt;/font&gt;" style="text;html=1;align=center;verticalAlign=middle;whiteSpace=wrap;rounded=0;shadow=0;glass=1;sketch=0;" parent="gTLbP1D9JrKEajbqQico-265" vertex="1">
          <mxGeometry x="10" y="54" width="62.75" height="20" as="geometry" />
        </mxCell>
        <mxCell id="gTLbP1D9JrKEajbqQico-270" style="edgeStyle=orthogonalEdgeStyle;rounded=0;orthogonalLoop=1;jettySize=auto;html=1;entryX=0.006;entryY=0.378;entryDx=0;entryDy=0;startArrow=none;startFill=0;endArrow=classic;endFill=1;fillColor=#dae8fc;strokeColor=#6c8ebf;entryPerimeter=0;" parent="1" source="gTLbP1D9JrKEajbqQico-232" target="gTLbP1D9JrKEajbqQico-265" edge="1">
          <mxGeometry relative="1" as="geometry" />
        </mxCell>
        <mxCell id="gTLbP1D9JrKEajbqQico-271" style="edgeStyle=orthogonalEdgeStyle;rounded=0;orthogonalLoop=1;jettySize=auto;html=1;entryX=0.005;entryY=0.63;entryDx=0;entryDy=0;entryPerimeter=0;startArrow=none;startFill=0;endArrow=classic;endFill=1;fillColor=#dae8fc;strokeColor=#6c8ebf;" parent="1" source="vF229vAikid6p4hbQFqr-76" target="gTLbP1D9JrKEajbqQico-234" edge="1">
          <mxGeometry relative="1" as="geometry" />
        </mxCell>
        <mxCell id="14Z1kcAook-13e1Ccf9p-28" style="edgeStyle=orthogonalEdgeStyle;rounded=0;orthogonalLoop=1;jettySize=auto;html=1;exitX=1;exitY=0.5;exitDx=0;exitDy=0;entryX=0;entryY=0.098;entryDx=0;entryDy=0;entryPerimeter=0;fillColor=#dae8fc;strokeColor=#6c8ebf;" parent="1" source="gTLbP1D9JrKEajbqQico-265" target="gTLbP1D9JrKEajbqQico-238" edge="1">
          <mxGeometry relative="1" as="geometry">
            <Array as="points">
              <mxPoint x="670" y="660" />
              <mxPoint x="670" y="720" />
            </Array>
          </mxGeometry>
        </mxCell>
        <mxCell id="14Z1kcAook-13e1Ccf9p-35" value="REST API" style="whiteSpace=wrap;html=1;aspect=fixed;rounded=0;shadow=1;glass=0;dashed=1;dashPattern=1 1;sketch=0;gradientColor=#ffffff;verticalAlign=top;opacity=90;labelPosition=center;verticalLabelPosition=bottom;align=center;" parent="1" vertex="1">
          <mxGeometry x="556.5" y="105.5" width="79" height="79" as="geometry" />
        </mxCell>
        <mxCell id="14Z1kcAook-13e1Ccf9p-37" value="" style="rounded=1;whiteSpace=wrap;html=1;fillColor=#ffe6cc;strokeColor=#d79b00;shadow=0;sketch=0;glass=0;dashed=1;dashPattern=1 1;gradientDirection=east;opacity=90;labelPosition=center;verticalLabelPosition=top;align=center;verticalAlign=bottom;arcSize=3;" parent="1" vertex="1">
          <mxGeometry x="361" y="92.5" width="529" height="409" as="geometry" />
        </mxCell>
        <mxCell id="14Z1kcAook-13e1Ccf9p-38" value="" style="rounded=1;whiteSpace=wrap;html=1;fillColor=#ffe6cc;strokeColor=#d79b00;shadow=0;sketch=0;glass=0;dashed=1;dashPattern=1 1;gradientDirection=east;labelPosition=center;verticalLabelPosition=top;align=center;verticalAlign=bottom;arcSize=3;" parent="1" vertex="1">
          <mxGeometry x="351" y="82.5" width="529" height="409" as="geometry" />
        </mxCell>
        <mxCell id="14Z1kcAook-13e1Ccf9p-39" value="" style="group;labelPosition=left;verticalLabelPosition=top;align=right;verticalAlign=bottom;" parent="1" vertex="1" connectable="0">
          <mxGeometry x="341" y="46" width="550" height="465" as="geometry" />
        </mxCell>
        <mxCell id="14Z1kcAook-13e1Ccf9p-40" value="" style="rounded=1;whiteSpace=wrap;html=1;fillColor=#ffe6cc;strokeColor=#d79b00;shadow=0;sketch=0;glass=0;dashed=1;dashPattern=1 1;gradientDirection=east;labelPosition=center;verticalLabelPosition=top;align=center;verticalAlign=bottom;arcSize=3;" parent="14Z1kcAook-13e1Ccf9p-39" vertex="1">
          <mxGeometry y="20.666666666666664" width="530" height="413.84999999999997" as="geometry" />
        </mxCell>
        <mxCell id="14Z1kcAook-13e1Ccf9p-41" style="edgeStyle=orthogonalEdgeStyle;rounded=0;orthogonalLoop=1;jettySize=auto;html=1;entryX=0.005;entryY=0.63;entryDx=0;entryDy=0;entryPerimeter=0;exitX=1.02;exitY=0.458;exitDx=0;exitDy=0;exitPerimeter=0;fillColor=#dae8fc;strokeColor=#6c8ebf;" parent="14Z1kcAook-13e1Ccf9p-39" source="14Z1kcAook-13e1Ccf9p-44" target="14Z1kcAook-13e1Ccf9p-42" edge="1">
          <mxGeometry relative="1" as="geometry">
            <mxPoint x="70" y="169.46666666666667" as="sourcePoint" />
          </mxGeometry>
        </mxCell>
        <mxCell id="14Z1kcAook-13e1Ccf9p-42" value="" style="html=1;dashed=0;whitespace=wrap;fillColor=#2875E2;strokeColor=#ffffff;points=[[0.005,0.63,0],[0.1,0.2,0],[0.9,0.2,0],[0.5,0,0],[0.995,0.63,0],[0.72,0.99,0],[0.5,1,0],[0.28,0.99,0]];shape=mxgraph.kubernetes.icon;prIcon=svc;verticalAlign=top;labelPosition=center;verticalLabelPosition=bottom;align=center;shadow=1;" parent="14Z1kcAook-13e1Ccf9p-39" vertex="1">
          <mxGeometry x="130" y="55.03333333333332" width="50" height="49.6" as="geometry" />
        </mxCell>
        <mxCell id="14Z1kcAook-13e1Ccf9p-43" style="edgeStyle=orthogonalEdgeStyle;rounded=0;orthogonalLoop=1;jettySize=auto;html=1;entryX=0.005;entryY=0.63;entryDx=0;entryDy=0;entryPerimeter=0;fillColor=#dae8fc;strokeColor=#6c8ebf;" parent="14Z1kcAook-13e1Ccf9p-39" source="14Z1kcAook-13e1Ccf9p-44" target="14Z1kcAook-13e1Ccf9p-46" edge="1">
          <mxGeometry relative="1" as="geometry" />
        </mxCell>
        <mxCell id="14Z1kcAook-13e1Ccf9p-44" value="Traefik" style="html=1;dashed=0;whitespace=wrap;fillColor=#2875E2;strokeColor=#ffffff;points=[[0.005,0.63,0],[0.1,0.2,0],[0.9,0.2,0],[0.5,0,0],[0.995,0.63,0],[0.72,0.99,0],[0.5,1,0],[0.28,0.99,0]];shape=mxgraph.kubernetes.icon;prIcon=ing;verticalAlign=top;labelPosition=center;verticalLabelPosition=bottom;align=center;shadow=1;" parent="14Z1kcAook-13e1Ccf9p-39" vertex="1">
          <mxGeometry x="20" y="127.61666666666666" width="50" height="49.6" as="geometry" />
        </mxCell>
        <mxCell id="14Z1kcAook-13e1Ccf9p-45" style="edgeStyle=orthogonalEdgeStyle;rounded=0;orthogonalLoop=1;jettySize=auto;html=1;entryX=0;entryY=0.5;entryDx=0;entryDy=0;fillColor=#dae8fc;strokeColor=#6c8ebf;" parent="14Z1kcAook-13e1Ccf9p-39" source="14Z1kcAook-13e1Ccf9p-46" target="14Z1kcAook-13e1Ccf9p-55" edge="1">
          <mxGeometry relative="1" as="geometry">
            <mxPoint x="217" y="215.96666666666664" as="targetPoint" />
          </mxGeometry>
        </mxCell>
        <mxCell id="14Z1kcAook-13e1Ccf9p-46" value="" style="html=1;dashed=0;whitespace=wrap;fillColor=#2875E2;strokeColor=#ffffff;points=[[0.005,0.63,0],[0.1,0.2,0],[0.9,0.2,0],[0.5,0,0],[0.995,0.63,0],[0.72,0.99,0],[0.5,1,0],[0.28,0.99,0]];shape=mxgraph.kubernetes.icon;prIcon=svc;verticalAlign=top;labelPosition=center;verticalLabelPosition=bottom;align=center;shadow=1;" parent="14Z1kcAook-13e1Ccf9p-39" vertex="1">
          <mxGeometry x="130" y="162.75333333333333" width="50" height="49.6" as="geometry" />
        </mxCell>
        <mxCell id="14Z1kcAook-13e1Ccf9p-47" value="" style="html=1;dashed=0;whitespace=wrap;fillColor=#2875E2;strokeColor=#ffffff;points=[[0.005,0.63,0],[0.1,0.2,0],[0.9,0.2,0],[0.5,0,0],[0.995,0.63,0],[0.72,0.99,0],[0.5,1,0],[0.28,0.99,0]];shape=mxgraph.kubernetes.icon;prIcon=node;rounded=1;sketch=0;labelPosition=center;verticalLabelPosition=bottom;align=center;verticalAlign=top;shadow=1;" parent="14Z1kcAook-13e1Ccf9p-39" vertex="1">
          <mxGeometry x="12" y="22.21666666666667" width="38" height="47.01666666666666" as="geometry" />
        </mxCell>
        <mxCell id="14Z1kcAook-13e1Ccf9p-48" value="" style="shape=mxgraph.gcp2.doubleRect;strokeColor=#dddddd;shadow=1;strokeWidth=1;" parent="14Z1kcAook-13e1Ccf9p-39" vertex="1">
          <mxGeometry x="379" y="143.11666666666665" width="135" height="70.26666666666667" as="geometry" />
        </mxCell>
        <mxCell id="14Z1kcAook-13e1Ccf9p-49" value="PostgreSQL" style="dashed=0;connectable=0;html=1;fillColor=#5184F3;strokeColor=none;shape=mxgraph.gcp2.hexIcon;prIcon=cloud_sql;part=1;labelPosition=right;verticalLabelPosition=middle;align=left;verticalAlign=middle;spacingLeft=5;fontColor=#999999;fontSize=12;" parent="14Z1kcAook-13e1Ccf9p-48" vertex="1">
          <mxGeometry y="0.5" width="44" height="39" relative="1" as="geometry">
            <mxPoint x="5" y="-19.5" as="offset" />
          </mxGeometry>
        </mxCell>
        <mxCell id="14Z1kcAook-13e1Ccf9p-50" value="" style="group;container=0;connectable=1;" parent="14Z1kcAook-13e1Ccf9p-39" vertex="1" connectable="0">
          <mxGeometry x="19" y="330" width="86" height="88.86666666666667" as="geometry" />
        </mxCell>
        <mxCell id="14Z1kcAook-13e1Ccf9p-51" value="" style="group;labelPosition=center;verticalLabelPosition=bottom;align=center;verticalAlign=top;rounded=1;shadow=0;gradientDirection=east;strokeColor=#6c8ebf;fillColor=#dae8fc;arcSize=4;glass=1;" parent="14Z1kcAook-13e1Ccf9p-50" vertex="1" connectable="0">
          <mxGeometry x="7" y="7.233333333333333" width="79" height="81.63333333333333" as="geometry" />
        </mxCell>
        <mxCell id="14Z1kcAook-13e1Ccf9p-52" value="" style="html=1;dashed=0;whitespace=wrap;fillColor=#2875E2;strokeColor=#ffffff;points=[[0.005,0.63,0],[0.1,0.2,0],[0.9,0.2,0],[0.5,0,0],[0.995,0.63,0],[0.72,0.99,0],[0.5,1,0],[0.28,0.99,0]];shape=mxgraph.kubernetes.icon;prIcon=pod;rounded=1;shadow=0;glass=1;sketch=0;" parent="14Z1kcAook-13e1Ccf9p-50" vertex="1">
          <mxGeometry x="28.75" y="21.441666666666663" width="35.5" height="45.98333333333333" as="geometry" />
        </mxCell>
        <mxCell id="14Z1kcAook-13e1Ccf9p-53" value="&lt;font style=&quot;font-size: 11px&quot;&gt;Monitor&lt;/font&gt;" style="text;html=1;align=center;verticalAlign=middle;whiteSpace=wrap;rounded=0;shadow=0;glass=1;sketch=0;" parent="14Z1kcAook-13e1Ccf9p-50" vertex="1">
          <mxGeometry x="15.129999999999999" y="58.900000000000006" width="62.75" height="20.666666666666664" as="geometry" />
        </mxCell>
        <mxCell id="14Z1kcAook-13e1Ccf9p-54" style="edgeStyle=orthogonalEdgeStyle;rounded=0;orthogonalLoop=1;jettySize=auto;html=1;exitX=1;exitY=0.25;exitDx=0;exitDy=0;entryX=0;entryY=0.25;entryDx=0;entryDy=0;fillColor=#dae8fc;strokeColor=#6c8ebf;" parent="14Z1kcAook-13e1Ccf9p-39" source="14Z1kcAook-13e1Ccf9p-55" target="14Z1kcAook-13e1Ccf9p-48" edge="1">
          <mxGeometry relative="1" as="geometry">
            <Array as="points">
              <mxPoint x="300" y="161" />
            </Array>
          </mxGeometry>
        </mxCell>
        <mxCell id="14Z1kcAook-13e1Ccf9p-55" value="" style="group;container=0;connectable=1;" parent="14Z1kcAook-13e1Ccf9p-39" vertex="1" connectable="0">
          <mxGeometry x="213.5" y="143.11666666666665" width="86" height="88.86666666666667" as="geometry" />
        </mxCell>
        <mxCell id="14Z1kcAook-13e1Ccf9p-56" value="" style="group;labelPosition=center;verticalLabelPosition=bottom;align=center;verticalAlign=top;rounded=1;shadow=0;gradientDirection=east;strokeColor=#6c8ebf;fillColor=#dae8fc;arcSize=4;glass=1;" parent="14Z1kcAook-13e1Ccf9p-55" vertex="1" connectable="0">
          <mxGeometry x="7" y="7.233333333333333" width="79" height="81.63333333333333" as="geometry" />
        </mxCell>
        <mxCell id="14Z1kcAook-13e1Ccf9p-57" value="" style="group;labelPosition=center;verticalLabelPosition=bottom;align=center;verticalAlign=top;rounded=1;shadow=0;gradientDirection=east;strokeColor=#6c8ebf;fillColor=#dae8fc;arcSize=4;glass=1;" parent="14Z1kcAook-13e1Ccf9p-55" vertex="1" connectable="0">
          <mxGeometry width="79" height="81.63333333333333" as="geometry" />
        </mxCell>
        <mxCell id="14Z1kcAook-13e1Ccf9p-58" value="" style="html=1;dashed=0;whitespace=wrap;fillColor=#2875E2;strokeColor=#ffffff;points=[[0.005,0.63,0],[0.1,0.2,0],[0.9,0.2,0],[0.5,0,0],[0.995,0.63,0],[0.72,0.99,0],[0.5,1,0],[0.28,0.99,0]];shape=mxgraph.kubernetes.icon;prIcon=pod;rounded=1;shadow=0;glass=1;sketch=0;" parent="14Z1kcAook-13e1Ccf9p-55" vertex="1">
          <mxGeometry x="21.75" y="12.658333333333331" width="35.5" height="45.98333333333333" as="geometry" />
        </mxCell>
        <mxCell id="14Z1kcAook-13e1Ccf9p-59" value="Web3 API" style="text;html=1;align=center;verticalAlign=middle;whiteSpace=wrap;rounded=0;shadow=0;glass=1;sketch=0;" parent="14Z1kcAook-13e1Ccf9p-55" vertex="1">
          <mxGeometry x="10" y="55.8" width="62.75" height="20.666666666666664" as="geometry" />
        </mxCell>
        <mxCell id="14Z1kcAook-13e1Ccf9p-60" style="edgeStyle=orthogonalEdgeStyle;rounded=0;orthogonalLoop=1;jettySize=auto;html=1;entryX=0;entryY=0.75;entryDx=0;entryDy=0;exitX=1;exitY=0.25;exitDx=0;exitDy=0;fillColor=#dae8fc;strokeColor=#6c8ebf;" parent="14Z1kcAook-13e1Ccf9p-39" source="14Z1kcAook-13e1Ccf9p-61" target="14Z1kcAook-13e1Ccf9p-48" edge="1">
          <mxGeometry relative="1" as="geometry" />
        </mxCell>
        <mxCell id="14Z1kcAook-13e1Ccf9p-61" value="" style="group;container=0;connectable=1;" parent="14Z1kcAook-13e1Ccf9p-39" vertex="1" connectable="0">
          <mxGeometry x="209.5" y="335.83333333333326" width="86" height="88.86666666666667" as="geometry" />
        </mxCell>
        <mxCell id="14Z1kcAook-13e1Ccf9p-62" value="" style="group;labelPosition=center;verticalLabelPosition=bottom;align=center;verticalAlign=top;rounded=1;shadow=0;gradientDirection=east;strokeColor=#6c8ebf;fillColor=#dae8fc;arcSize=4;glass=1;" parent="14Z1kcAook-13e1Ccf9p-61" vertex="1" connectable="0">
          <mxGeometry x="7" y="7.233333333333333" width="79" height="81.63333333333333" as="geometry" />
        </mxCell>
        <mxCell id="14Z1kcAook-13e1Ccf9p-63" value="" style="html=1;dashed=0;whitespace=wrap;fillColor=#2875E2;strokeColor=#ffffff;points=[[0.005,0.63,0],[0.1,0.2,0],[0.9,0.2,0],[0.5,0,0],[0.995,0.63,0],[0.72,0.99,0],[0.5,1,0],[0.28,0.99,0]];shape=mxgraph.kubernetes.icon;prIcon=pod;rounded=1;shadow=0;glass=1;sketch=0;" parent="14Z1kcAook-13e1Ccf9p-61" vertex="1">
          <mxGeometry x="28.75" y="21.441666666666663" width="35.5" height="45.98333333333333" as="geometry" />
        </mxCell>
        <mxCell id="14Z1kcAook-13e1Ccf9p-64" value="&lt;font style=&quot;font-size: 11px&quot;&gt;Importer&lt;/font&gt;" style="text;html=1;align=center;verticalAlign=middle;whiteSpace=wrap;rounded=0;shadow=0;glass=1;sketch=0;" parent="14Z1kcAook-13e1Ccf9p-61" vertex="1">
          <mxGeometry x="15.129999999999999" y="58.900000000000006" width="62.75" height="20.666666666666664" as="geometry" />
        </mxCell>
        <mxCell id="14Z1kcAook-13e1Ccf9p-65" style="edgeStyle=orthogonalEdgeStyle;rounded=0;orthogonalLoop=1;jettySize=auto;html=1;entryX=0;entryY=0.25;entryDx=0;entryDy=0;exitX=1.017;exitY=0.639;exitDx=0;exitDy=0;exitPerimeter=0;fillColor=#dae8fc;strokeColor=#6c8ebf;" parent="14Z1kcAook-13e1Ccf9p-39" source="14Z1kcAook-13e1Ccf9p-67" target="14Z1kcAook-13e1Ccf9p-72" edge="1">
          <mxGeometry relative="1" as="geometry" />
        </mxCell>
        <mxCell id="14Z1kcAook-13e1Ccf9p-66" style="edgeStyle=orthogonalEdgeStyle;rounded=0;orthogonalLoop=1;jettySize=auto;html=1;exitX=1;exitY=0.5;exitDx=0;exitDy=0;entryX=0;entryY=0.5;entryDx=0;entryDy=0;fillColor=#dae8fc;strokeColor=#6c8ebf;" parent="14Z1kcAook-13e1Ccf9p-39" source="14Z1kcAook-13e1Ccf9p-67" target="14Z1kcAook-13e1Ccf9p-48" edge="1">
          <mxGeometry relative="1" as="geometry">
            <Array as="points">
              <mxPoint x="329" y="285" />
              <mxPoint x="329" y="178" />
            </Array>
          </mxGeometry>
        </mxCell>
        <mxCell id="14Z1kcAook-13e1Ccf9p-67" value="" style="group;container=0;connectable=1;" parent="14Z1kcAook-13e1Ccf9p-39" vertex="1" connectable="0">
          <mxGeometry x="213.5" y="240.25" width="86" height="88.86666666666667" as="geometry" />
        </mxCell>
        <mxCell id="14Z1kcAook-13e1Ccf9p-68" value="" style="group;labelPosition=center;verticalLabelPosition=bottom;align=center;verticalAlign=top;rounded=1;shadow=0;gradientDirection=east;strokeColor=#6c8ebf;fillColor=#dae8fc;arcSize=4;glass=1;" parent="14Z1kcAook-13e1Ccf9p-67" vertex="1" connectable="0">
          <mxGeometry x="7" y="7.233333333333333" width="79" height="81.63333333333333" as="geometry" />
        </mxCell>
        <mxCell id="14Z1kcAook-13e1Ccf9p-69" value="" style="group;labelPosition=center;verticalLabelPosition=bottom;align=center;verticalAlign=top;rounded=1;shadow=0;gradientDirection=east;strokeColor=#6c8ebf;fillColor=#dae8fc;arcSize=4;glass=1;" parent="14Z1kcAook-13e1Ccf9p-67" vertex="1" connectable="0">
          <mxGeometry width="79" height="81.63333333333333" as="geometry" />
        </mxCell>
        <mxCell id="14Z1kcAook-13e1Ccf9p-70" value="" style="html=1;dashed=0;whitespace=wrap;fillColor=#2875E2;strokeColor=#ffffff;points=[[0.005,0.63,0],[0.1,0.2,0],[0.9,0.2,0],[0.5,0,0],[0.995,0.63,0],[0.72,0.99,0],[0.5,1,0],[0.28,0.99,0]];shape=mxgraph.kubernetes.icon;prIcon=pod;rounded=1;shadow=0;glass=1;sketch=0;" parent="14Z1kcAook-13e1Ccf9p-67" vertex="1">
          <mxGeometry x="21.75" y="12.658333333333331" width="35.5" height="45.98333333333333" as="geometry" />
        </mxCell>
        <mxCell id="14Z1kcAook-13e1Ccf9p-71" value="gRPC API" style="text;html=1;align=center;verticalAlign=middle;whiteSpace=wrap;rounded=0;shadow=0;glass=1;sketch=0;" parent="14Z1kcAook-13e1Ccf9p-67" vertex="1">
          <mxGeometry x="10" y="55.8" width="62.75" height="20.666666666666664" as="geometry" />
        </mxCell>
        <mxCell id="14Z1kcAook-13e1Ccf9p-72" value="" style="shape=mxgraph.gcp2.doubleRect;strokeColor=#dddddd;shadow=1;strokeWidth=1;" parent="14Z1kcAook-13e1Ccf9p-39" vertex="1">
          <mxGeometry x="379" y="280.00333333333333" width="141" height="70.26666666666667" as="geometry" />
        </mxCell>
        <mxCell id="14Z1kcAook-13e1Ccf9p-73" value="Redis" style="dashed=0;connectable=0;html=1;fillColor=#5184F3;strokeColor=none;shape=mxgraph.gcp2.hexIcon;prIcon=cloud_memorystore;part=1;labelPosition=right;verticalLabelPosition=middle;align=left;verticalAlign=middle;spacingLeft=5;fontColor=#999999;fontSize=12;" parent="14Z1kcAook-13e1Ccf9p-72" vertex="1">
          <mxGeometry y="0.5" width="44" height="39" relative="1" as="geometry">
            <mxPoint x="5" y="-19.5" as="offset" />
          </mxGeometry>
        </mxCell>
        <mxCell id="14Z1kcAook-13e1Ccf9p-74" style="edgeStyle=orthogonalEdgeStyle;rounded=0;orthogonalLoop=1;jettySize=auto;html=1;entryX=0;entryY=0.669;entryDx=0;entryDy=0;entryPerimeter=0;fillColor=#dae8fc;strokeColor=#6c8ebf;" parent="14Z1kcAook-13e1Ccf9p-39" source="14Z1kcAook-13e1Ccf9p-61" target="14Z1kcAook-13e1Ccf9p-72" edge="1">
          <mxGeometry relative="1" as="geometry">
            <Array as="points">
              <mxPoint x="349" y="380" />
              <mxPoint x="349" y="327" />
            </Array>
          </mxGeometry>
        </mxCell>
        <mxCell id="14Z1kcAook-13e1Ccf9p-75" style="edgeStyle=orthogonalEdgeStyle;rounded=0;orthogonalLoop=1;jettySize=auto;html=1;entryX=0;entryY=0.5;entryDx=0;entryDy=0;fillColor=#dae8fc;strokeColor=#6c8ebf;" parent="14Z1kcAook-13e1Ccf9p-39" source="14Z1kcAook-13e1Ccf9p-76" target="14Z1kcAook-13e1Ccf9p-67" edge="1">
          <mxGeometry relative="1" as="geometry" />
        </mxCell>
        <mxCell id="14Z1kcAook-13e1Ccf9p-76" value="" style="html=1;dashed=0;whitespace=wrap;fillColor=#2875E2;strokeColor=#ffffff;points=[[0.005,0.63,0],[0.1,0.2,0],[0.9,0.2,0],[0.5,0,0],[0.995,0.63,0],[0.72,0.99,0],[0.5,1,0],[0.28,0.99,0]];shape=mxgraph.kubernetes.icon;prIcon=svc;verticalAlign=top;labelPosition=center;verticalLabelPosition=bottom;align=center;shadow=1;" parent="14Z1kcAook-13e1Ccf9p-39" vertex="1">
          <mxGeometry x="130" y="259.88333333333344" width="50" height="49.6" as="geometry" />
        </mxCell>
        <mxCell id="14Z1kcAook-13e1Ccf9p-77" style="edgeStyle=orthogonalEdgeStyle;rounded=0;orthogonalLoop=1;jettySize=auto;html=1;entryX=0.005;entryY=0.63;entryDx=0;entryDy=0;entryPerimeter=0;fillColor=#dae8fc;strokeColor=#6c8ebf;" parent="14Z1kcAook-13e1Ccf9p-39" source="14Z1kcAook-13e1Ccf9p-44" target="14Z1kcAook-13e1Ccf9p-76" edge="1">
          <mxGeometry relative="1" as="geometry" />
        </mxCell>
        <mxCell id="14Z1kcAook-13e1Ccf9p-78" style="edgeStyle=orthogonalEdgeStyle;rounded=0;orthogonalLoop=1;jettySize=auto;html=1;exitX=1;exitY=0.75;exitDx=0;exitDy=0;entryX=0;entryY=0.5;entryDx=0;entryDy=0;fillColor=#dae8fc;strokeColor=#6c8ebf;" parent="1" source="14Z1kcAook-13e1Ccf9p-79" target="14Z1kcAook-13e1Ccf9p-72" edge="1">
          <mxGeometry relative="1" as="geometry">
            <Array as="points">
              <mxPoint x="660" y="157" />
              <mxPoint x="660" y="361" />
            </Array>
          </mxGeometry>
        </mxCell>
        <mxCell id="14Z1kcAook-13e1Ccf9p-79" value="" style="group;container=0;connectable=1;" parent="1" vertex="1" connectable="0">
          <mxGeometry x="554.5" y="92.5" width="86" height="86" as="geometry" />
        </mxCell>
        <mxCell id="14Z1kcAook-13e1Ccf9p-80" value="" style="group;labelPosition=center;verticalLabelPosition=bottom;align=center;verticalAlign=top;rounded=1;shadow=0;gradientDirection=east;strokeColor=#6c8ebf;fillColor=#dae8fc;arcSize=4;glass=1;" parent="14Z1kcAook-13e1Ccf9p-79" vertex="1" connectable="0">
          <mxGeometry x="7" y="7" width="79" height="79" as="geometry" />
        </mxCell>
        <mxCell id="14Z1kcAook-13e1Ccf9p-81" value="" style="group;labelPosition=center;verticalLabelPosition=bottom;align=center;verticalAlign=top;rounded=1;shadow=0;gradientDirection=east;strokeColor=#6c8ebf;fillColor=#dae8fc;arcSize=4;glass=1;" parent="14Z1kcAook-13e1Ccf9p-79" vertex="1" connectable="0">
          <mxGeometry width="79" height="79" as="geometry" />
        </mxCell>
        <mxCell id="14Z1kcAook-13e1Ccf9p-82" value="" style="html=1;dashed=0;whitespace=wrap;fillColor=#2875E2;strokeColor=#ffffff;points=[[0.005,0.63,0],[0.1,0.2,0],[0.9,0.2,0],[0.5,0,0],[0.995,0.63,0],[0.72,0.99,0],[0.5,1,0],[0.28,0.99,0]];shape=mxgraph.kubernetes.icon;prIcon=pod;rounded=1;shadow=0;glass=1;sketch=0;" parent="14Z1kcAook-13e1Ccf9p-79" vertex="1">
          <mxGeometry x="21.75" y="12.25" width="35.5" height="44.5" as="geometry" />
        </mxCell>
        <mxCell id="14Z1kcAook-13e1Ccf9p-83" value="&lt;font style=&quot;font-size: 11px&quot;&gt;REST API&lt;/font&gt;" style="text;html=1;align=center;verticalAlign=middle;whiteSpace=wrap;rounded=0;shadow=0;glass=1;sketch=0;" parent="14Z1kcAook-13e1Ccf9p-79" vertex="1">
          <mxGeometry x="10" y="54" width="62.75" height="20" as="geometry" />
        </mxCell>
        <mxCell id="14Z1kcAook-13e1Ccf9p-84" style="edgeStyle=orthogonalEdgeStyle;rounded=0;orthogonalLoop=1;jettySize=auto;html=1;entryX=0.006;entryY=0.378;entryDx=0;entryDy=0;startArrow=none;startFill=0;endArrow=classic;endFill=1;fillColor=#dae8fc;strokeColor=#6c8ebf;entryPerimeter=0;" parent="1" source="14Z1kcAook-13e1Ccf9p-42" target="14Z1kcAook-13e1Ccf9p-79" edge="1">
          <mxGeometry relative="1" as="geometry" />
        </mxCell>
        <mxCell id="14Z1kcAook-13e1Ccf9p-85" value="" style="strokeColor=#dddddd;shadow=1;strokeWidth=1;rounded=1;absoluteArcSize=1;arcSize=2;glass=1;sketch=0;fillColor=#ffffff;gradientColor=none;" parent="1" vertex="1">
          <mxGeometry x="950" y="520" width="131" height="60" as="geometry" />
        </mxCell>
        <mxCell id="14Z1kcAook-13e1Ccf9p-86" value="Cloud&#xa;Storage" style="dashed=0;connectable=0;html=1;fillColor=#5184F3;strokeColor=none;shape=mxgraph.gcp2.hexIcon;prIcon=cloud_storage;part=1;labelPosition=right;verticalLabelPosition=middle;align=left;verticalAlign=middle;spacingLeft=5;fontColor=#999999;fontSize=12;" parent="14Z1kcAook-13e1Ccf9p-85" vertex="1">
          <mxGeometry y="0.5" width="44" height="39" relative="1" as="geometry">
            <mxPoint x="5" y="-19.5" as="offset" />
          </mxGeometry>
        </mxCell>
        <mxCell id="14Z1kcAook-13e1Ccf9p-87" style="edgeStyle=orthogonalEdgeStyle;rounded=0;orthogonalLoop=1;jettySize=auto;html=1;entryX=0;entryY=0.5;entryDx=0;entryDy=0;exitX=1.017;exitY=0.616;exitDx=0;exitDy=0;exitPerimeter=0;fillColor=#dae8fc;strokeColor=#6c8ebf;" parent="1" source="14Z1kcAook-13e1Ccf9p-61" target="14Z1kcAook-13e1Ccf9p-85" edge="1">
          <mxGeometry relative="1" as="geometry">
            <Array as="points">
              <mxPoint x="910" y="437" />
              <mxPoint x="910" y="550" />
            </Array>
          </mxGeometry>
        </mxCell>
        <mxCell id="14Z1kcAook-13e1Ccf9p-88" style="edgeStyle=orthogonalEdgeStyle;rounded=0;orthogonalLoop=1;jettySize=auto;html=1;exitX=1;exitY=0.5;exitDx=0;exitDy=0;entryX=0;entryY=0.098;entryDx=0;entryDy=0;entryPerimeter=0;fillColor=#dae8fc;strokeColor=#6c8ebf;" parent="1" source="14Z1kcAook-13e1Ccf9p-79" target="14Z1kcAook-13e1Ccf9p-48" edge="1">
          <mxGeometry relative="1" as="geometry">
            <Array as="points">
              <mxPoint x="670" y="136" />
              <mxPoint x="670" y="196" />
            </Array>
          </mxGeometry>
        </mxCell>
        <mxCell id="14Z1kcAook-13e1Ccf9p-89" style="edgeStyle=orthogonalEdgeStyle;rounded=0;orthogonalLoop=1;jettySize=auto;html=1;entryX=0.005;entryY=0.63;entryDx=0;entryDy=0;entryPerimeter=0;fillColor=#dae8fc;strokeColor=#6c8ebf;" parent="1" source="vF229vAikid6p4hbQFqr-76" target="14Z1kcAook-13e1Ccf9p-44" edge="1">
          <mxGeometry relative="1" as="geometry" />
        </mxCell>
        <mxCell id="h_xX-58HxWVis_2mYIK8-1" style="edgeStyle=orthogonalEdgeStyle;rounded=0;orthogonalLoop=1;jettySize=auto;html=1;exitX=1;exitY=0.75;exitDx=0;exitDy=0;entryX=0;entryY=0.75;entryDx=0;entryDy=0;fillColor=#dae8fc;strokeColor=#6c8ebf;" edge="1" parent="1" source="gTLbP1D9JrKEajbqQico-254" target="14Z1kcAook-13e1Ccf9p-85">
          <mxGeometry relative="1" as="geometry">
            <Array as="points">
              <mxPoint x="910" y="973" />
              <mxPoint x="910" y="565" />
            </Array>
          </mxGeometry>
        </mxCell>
      </root>
    </mxGraphModel>
  </diagram>
</mxfile>
